<svg xmlns="http://www.w3.org/2000/svg" xmlns:xlink="http://www.w3.org/1999/xlink" width="1344" zoomAndPan="magnify" viewBox="0 0 1008 1295.99994" height="1728" preserveAspectRatio="xMidYMid meet" version="1.0"><rect x="-100.8" width="1209.6" fill="#ffffff" y="-129.599994" height="1555.199927" fill-opacity="1"/><rect x="-100.8" width="1209.6" fill="#ffffff" y="-129.599994" height="1555.199927" fill-opacity="1"/><rect x="-100.8" width="1209.6" fill="#ffffff" y="-129.599994" height="1555.199927" fill-opacity="1"/><path fill="#ed2b7b" d="M 636.5 405.441406 C 640.179688 405.441406 642.128906 402.515625 640.179688 400.925781 C 636.5 399.558594 629.167969 400.925781 625.488281 400.925781 C 621.808594 400.925781 620.109375 399.558594 620.109375 400.925781 L 620.109375 403.878906 C 620.109375 405.441406 621.808594 405.441406 623.539062 405.441406 C 623.539062 414.25 623.539062 423.085938 623.539062 430.527344 L 623.539062 443.855469 C 623.539062 445.414062 623.789062 447.394531 623.789062 447.394531 C 623.789062 451.714844 623.539062 455.617188 623.539062 460.132812 C 623.539062 461.695312 625.488281 464.648438 623.539062 466.015625 C 621.835938 467.574219 620.109375 466.015625 620.109375 467.574219 C 618.160156 468.941406 620.109375 470.503906 620.109375 470.503906 C 625.488281 471.867188 632.847656 470.503906 636.527344 471.867188 C 638.480469 470.503906 640.207031 470.503906 640.207031 468.941406 C 638.507812 467.574219 636.527344 467.574219 634.828125 465.984375 C 634.828125 449.707031 636.054688 433.652344 636.527344 418.765625 C 636.722656 414.25 634.773438 409.734375 636.5 405.441406 Z M 689.878906 413.664062 C 695.511719 413.664062 695.511719 407.589844 693.558594 403.074219 C 691.832031 400.117188 682.773438 400.117188 676.890625 400.117188 C 671.007812 400.117188 663.175781 400.507812 657.796875 400.507812 C 652.164062 400.507812 648.738281 401.484375 645.058594 403.074219 C 643.105469 406 645.058594 410.710938 645.058594 413.664062 C 646.785156 415.226562 648.738281 413.664062 648.738281 413.664062 C 646.785156 406.027344 656.097656 404.660156 663.425781 406.027344 C 665.378906 410.738281 665.378906 415.226562 665.378906 421.109375 C 665.378906 421.109375 665.378906 422.667969 665.378906 424.0625 L 665.378906 431.699219 C 665.378906 437.777344 665.128906 443.269531 665.378906 449.539062 C 665.628906 454.445312 665.378906 461.695312 665.378906 467.574219 C 663.425781 467.574219 661.699219 468.941406 659.746094 468.941406 C 659.746094 470.503906 659.746094 472.0625 661.699219 472.0625 L 678.589844 472.0625 C 680.542969 472.0625 682.523438 470.503906 682.523438 470.503906 C 682.523438 467.574219 677.617188 468.941406 676.890625 467.574219 C 675.914062 465.625 676.890625 463.058594 676.890625 460.132812 L 676.890625 457.011719 C 676.890625 454.082031 676.890625 449.566406 676.890625 445.050781 L 676.890625 416.59375 C 676.890625 413.664062 674.941406 409.148438 676.890625 406 C 680.570312 406 686.199219 404.632812 687.902344 406 C 689.878906 409.148438 687.929688 412.300781 689.878906 413.664062 Z M 697.742188 413.273438 C 697.742188 414.25 697.742188 416.425781 698.96875 416.425781 C 700.445312 416.425781 701.671875 415.449219 703.121094 415.449219 C 705.824219 412.132812 712.683594 405.46875 707.023438 400.171875 C 704.320312 399.003906 700.417969 400.171875 700.417969 402.320312 C 700.417969 403.296875 701.644531 404.464844 703.121094 405.441406 C 704.347656 408.757812 701.644531 412.105469 697.742188 413.273438 Z M 741.589844 403.074219 C 739.636719 403.074219 737.660156 401.511719 737.660156 401.511719 C 733.253906 400.730469 732.027344 399.949219 728.097656 399.949219 C 724.167969 399.949219 722.464844 401.511719 720.515625 401.511719 C 716.585938 404.464844 712.933594 408.953125 714.632812 413.664062 C 714.632812 416.816406 718.785156 419.546875 721.742188 421.886719 C 724.667969 424.453125 726.144531 424.453125 728.097656 425.820312 C 730.046875 427.378906 732.027344 428.941406 735.707031 430.53125 C 739.636719 432.089844 741.589844 433.679688 743.539062 436.605469 C 747.21875 448.953125 743.539062 461.109375 732.027344 465.597656 C 730.078125 465.597656 730.078125 467.351562 728.097656 467.351562 C 722.464844 465.597656 720.515625 456.59375 724.167969 453.441406 C 726.117188 451.882812 728.097656 451.882812 730.046875 451.882812 C 732 448.953125 730.046875 445.804688 726.117188 445.804688 C 720.738281 447.5625 716.558594 447.367188 710.925781 448.925781 C 710.925781 450.292969 710.925781 451.855469 712.878906 453.441406 C 714.605469 453.441406 714.605469 451.882812 716.558594 451.882812 C 714.605469 458.152344 716.558594 462.667969 718.507812 465.597656 C 720.460938 467.351562 726.089844 471.867188 730.019531 471.867188 L 737.601562 471.867188 C 745.433594 470.308594 750.089844 467.742188 752.792969 462.667969 C 755.246094 458.347656 756.472656 455.03125 756.472656 448.953125 C 756.472656 445.832031 755.5 442.097656 753.519531 438.976562 C 751.820312 436.019531 750.816406 434.65625 749.839844 433.484375 C 744.710938 426.238281 733.671875 424.480469 729.992188 418.402344 C 728.042969 415.253906 728.042969 407.617188 729.992188 404.492188 C 733.671875 404.492188 737.574219 406.054688 739.554688 407.617188 C 739.554688 410.570312 737.601562 413.691406 739.554688 415.253906 C 743.457031 416.816406 745.433594 412.132812 747.136719 408.980469 C 747.136719 407.617188 749.085938 404.464844 747.136719 403.101562 C 747.136719 401.539062 745.40625 401.539062 743.457031 401.539062 C 741.589844 401.511719 741.589844 403.074219 741.589844 403.074219 Z M 741.589844 403.074219 " fill-opacity="1" fill-rule="nonzero"/><path fill="#ed2b7b" d="M 229.859375 536.34375 C 234.988281 532.023438 244.800781 532.023438 244.800781 528.121094 C 244.800781 523.800781 239.894531 523.800781 239.894531 523.800781 C 219.324219 519.867188 204.128906 523.800781 183.558594 523.800781 C 178.402344 523.800781 178.402344 528.121094 178.402344 528.121094 C 178.402344 536.34375 183.558594 540.273438 193.59375 536.34375 C 198.972656 552.398438 204.128906 568.871094 204.128906 589.445312 C 212.714844 628.441406 216.617188 670.980469 224.230469 708.582031 C 225.929688 717.417969 229.359375 725.054688 239.894531 725.054688 C 257.539062 693.890625 263.171875 646.476562 285.691406 610.015625 C 299.40625 638.449219 311.171875 672.539062 316.328125 704.484375 C 316.328125 708.582031 321.707031 725.054688 332.246094 725.054688 C 336.898438 721.125 337.402344 705.265625 338.851562 697.238281 C 343.757812 671.757812 347.660156 646.867188 353.066406 618.460938 C 357.722656 597.890625 360.425781 581.417969 370.460938 562.628906 C 373.164062 557.136719 373.414062 544.59375 378.292969 540.273438 C 383.449219 536.371094 393.988281 540.273438 399.117188 536.371094 C 399.117188 532.050781 398.613281 529.316406 398.613281 525.582031 C 385.625 521.066406 363.828125 521.679688 348.382812 523.828125 C 343.730469 524.609375 347.660156 532.050781 347.660156 536.371094 C 347.660156 540.273438 358.667969 538.515625 358.667969 538.515625 C 358.667969 542.449219 357.441406 553.402344 353.039062 561.066406 C 349.109375 568.316406 348.636719 584.789062 343.003906 593.011719 C 337.625 605.75 337.121094 614.167969 327.339844 622.589844 C 321.957031 597.890625 316.800781 573 311.644531 548.523438 C 321.929688 548.523438 327.339844 540.273438 321.929688 536.371094 C 311.644531 532.050781 306.265625 536.371094 296.453125 536.371094 C 285.664062 536.371094 265.34375 532.050781 265.34375 536.371094 C 265.34375 540.273438 270.722656 544.59375 270.722656 544.59375 L 276.105469 544.59375 C 281.011719 544.59375 285.664062 548.523438 285.664062 548.523438 C 281.011719 577.515625 270.722656 602.015625 255.53125 626.324219 C 255.53125 630.644531 251.378906 640.625 247.949219 637.695312 C 244.019531 634.742188 244.773438 630.644531 244.773438 630.644531 C 239.867188 605.75 234.960938 585.179688 234.960938 565.195312 C 234.988281 555.742188 226.179688 537.511719 229.859375 536.34375 Z M 229.859375 536.34375 " fill-opacity="1" fill-rule="nonzero"/><path fill="#ed2b7b" d="M 664.652344 521.066406 C 659.496094 512.84375 640.152344 519.3125 629.140625 516.746094 C 629.140625 516.746094 625.210938 518.113281 617.628906 518.113281 C 610.269531 518.113281 613.476562 516.746094 608.570312 516.746094 C 603.441406 525.164062 608.570312 525.164062 613.476562 529.289062 C 618.632812 529.289062 624.011719 533.191406 629.167969 537.320312 C 629.167969 549.472656 634.074219 557.5 634.074219 570.042969 L 634.074219 573.972656 C 634.074219 598.28125 632.125 623.5625 632.125 643.746094 C 632.125 651.996094 636.054688 676.082031 633.351562 673.152344 C 628.222656 667.660156 623.539062 651.800781 621.585938 648.066406 C 618.632812 642.769531 617.183594 639.84375 617.183594 635.523438 C 611.800781 627.492188 606.898438 619.464844 601.738281 607.117188 C 586.796875 578.710938 576.261719 550.085938 555.941406 525.777344 C 555.941406 525.777344 554.214844 518.335938 547.132812 518.335938 C 540.023438 518.335938 535.871094 517.164062 530.714844 517.554688 C 523.132812 517.945312 524.332031 518.335938 518.949219 518.335938 C 514.046875 518.335938 510.140625 521.679688 510.140625 525.777344 C 510.140625 529.902344 515.273438 533.804688 525.585938 533.804688 C 525.585938 537.933594 530.242188 542.253906 530.242188 547.910156 C 530.242188 553.597656 530.742188 554.183594 530.742188 558.308594 C 530.742188 562.210938 530.742188 566.335938 530.742188 570.65625 L 530.742188 574.558594 C 530.742188 578.683594 533.445312 583.171875 533.445312 587.296875 C 533.445312 595.519531 535.648438 602.183594 535.648438 611.214844 C 535.648438 620.246094 535.898438 631.398438 535.898438 639.816406 C 535.898438 647.84375 537.628906 664.316406 537.628906 676.273438 C 537.628906 684.304688 540.554688 696.847656 535.898438 704.679688 C 535.898438 708.777344 527.5625 705.851562 527.5625 705.851562 C 527.5625 714.269531 525.113281 721.710938 530.269531 721.710938 C 535.425781 721.710938 559.175781 721.125 564.304688 721.125 C 569.210938 721.125 575.566406 720.929688 575.566406 720.929688 C 585.601562 720.929688 581.195312 712.902344 581.195312 704.652344 C 576.289062 704.652344 571.410156 704.652344 566.253906 700.527344 L 566.253906 680.34375 C 566.253906 676.21875 566.253906 672.121094 566.253906 668.191406 L 566.253906 635.464844 C 566.253906 623.507812 566.253906 615.285156 566.253906 602.9375 L 566.253906 574.53125 C 576.289062 578.65625 573.113281 588.246094 578.019531 596.46875 C 578.019531 596.46875 579.246094 599.394531 581.195312 602.9375 C 584.152344 608.425781 590.507812 619.382812 593.210938 627.046875 C 602.519531 654.28125 619.914062 693.472656 629.949219 717.78125 C 634.855469 721.878906 653.699219 724.441406 653.226562 711.898438 C 648.097656 655.0625 649.070312 598.226562 649.070312 545.515625 C 649.070312 537.289062 644.164062 533.164062 649.070312 529.261719 L 659.609375 529.261719 C 659.523438 529.289062 664.652344 525.164062 664.652344 521.066406 Z M 664.652344 521.066406 " fill-opacity="1" fill-rule="nonzero"/><path fill="#ed2b7b" d="M 813.117188 552.59375 C 833.9375 552.59375 823.652344 536.121094 823.652344 527.898438 C 823.652344 523.574219 818.273438 519.476562 818.273438 519.476562 L 766.59375 519.476562 C 745.769531 523.574219 725.199219 523.574219 704.375 527.898438 L 704.375 536.121094 L 725.199219 536.121094 C 725.199219 548.273438 725.199219 560.816406 725.199219 573.164062 L 725.199219 589.613281 C 725.199219 606.253906 725.199219 618.601562 725.199219 631.144531 L 725.199219 639.5625 C 725.199219 664.652344 730.578125 685.027344 725.199219 709.726562 C 720.070312 709.726562 709.753906 709.726562 704.375 709.726562 L 704.375 717.949219 C 735.234375 722.269531 761.4375 722.269531 787.164062 722.269531 L 813.144531 722.269531 C 818.300781 717.949219 823.679688 714.046875 823.679688 709.726562 C 823.679688 701.472656 823.679688 689.347656 813.144531 689.347656 C 802.859375 693.25 813.144531 705.601562 802.859375 709.726562 C 787.164062 709.726562 776.878906 709.726562 761.464844 705.601562 C 761.464844 697.570312 759.984375 681.488281 759.984375 668.945312 C 759.984375 656.789062 756.054688 639.535156 761.464844 626.992188 C 766.621094 626.992188 782.285156 626.992188 787.191406 626.992188 L 787.191406 631.117188 C 787.191406 635.242188 797.476562 639.535156 797.476562 639.535156 C 807.765625 639.535156 797.476562 614.449219 802.859375 606.226562 C 797.476562 602.128906 797.476562 602.128906 792.320312 602.128906 C 787.164062 602.128906 787.164062 610.546875 787.164062 614.476562 C 776.878906 614.476562 761.4375 614.476562 756.054688 610.546875 C 761.4375 602.128906 756.054688 593.90625 756.054688 581.332031 C 756.054688 573.109375 756.78125 567.03125 756.78125 555.464844 C 756.78125 546.265625 756.054688 539.996094 761.4375 536.0625 C 771.722656 531.742188 787.164062 531.742188 797.449219 531.742188 C 802.832031 533.890625 802.832031 533.890625 807.734375 536.0625 C 813.117188 540.050781 807.707031 548.300781 813.117188 552.59375 Z M 813.117188 552.59375 " fill-opacity="1" fill-rule="nonzero"/><path fill="#731c47" d="M 441.988281 662.335938 C 432.175781 669.585938 387.855469 690.9375 387.351562 695.453125 C 385.625 711.925781 517.417969 712.09375 519.648438 696.234375 C 520.371094 691.132812 475.046875 669.78125 464.761719 662.335938 C 464.761719 624.707031 459.132812 581 463.035156 544.371094 C 464.007812 535.757812 467.941406 530.265625 484.359375 524.773438 C 573.28125 495.199219 556.609375 426.792969 536.039062 362.320312 C 480.929688 362.320312 426.042969 362.320312 370.933594 362.320312 C 350.363281 426.792969 333.695312 495.171875 422.613281 524.773438 C 439.507812 530.460938 443.1875 535.953125 443.941406 545.152344 C 447.367188 582.585938 442.238281 624.34375 441.988281 662.335938 Z M 441.988281 662.335938 " fill-opacity="1" fill-rule="evenodd"/><path fill="#ffffff" d="M 414.558594 512.230469 C 379.296875 486.363281 368.257812 395.238281 442.742188 369.566406 L 379.546875 370.933594 L 378.574219 374.277344 C 369.011719 405.441406 357.5 447.367188 373.667969 477.945312 C 382.222656 493.609375 396.664062 504.398438 414.558594 512.230469 Z M 414.558594 512.230469 " fill-opacity="1" fill-rule="evenodd"/><path fill="#ffffff" d="M 504.957031 373.691406 C 523.078125 417.398438 523.078125 456.789062 504.957031 492.050781 C 501.277344 498.90625 497.125 505.570312 492.21875 512.230469 C 496.625 510.28125 501.027344 508.105469 504.957031 505.960938 C 516.972656 498.90625 526.757812 489.707031 533.140625 477.945312 C 549.808594 446.976562 537.792969 403.878906 527.507812 370.933594 L 503.730469 370.933594 C 504.207031 371.90625 504.457031 372.714844 504.957031 373.691406 Z M 504.957031 373.691406 " fill-opacity="1" fill-rule="evenodd"/><path fill="#731c47" d="M 705.574219 798.5625 C 705.074219 797.976562 704.597656 797.585938 703.875 797.390625 C 702.898438 797.390625 702.144531 797.390625 701.421875 797.78125 C 700.695312 797.976562 700.445312 798.5625 700.195312 799.148438 C 700.195312 799.148438 699.945312 799.929688 699.21875 801.683594 C 698.71875 803.246094 697.992188 805.421875 697.015625 808.152344 C 696.039062 810.6875 694.816406 813.839844 693.335938 817.15625 C 691.859375 820.5 690.382812 823.816406 688.683594 827.359375 C 686.230469 832.460938 684.027344 836.554688 682.074219 839.707031 C 679.875 843.050781 678.144531 845.003906 676.945312 845.785156 C 675.46875 846.5625 674.492188 846.171875 673.769531 844.417969 C 673.042969 842.660156 672.792969 839.511719 672.792969 834.632812 C 673.042969 830.3125 673.042969 825.824219 672.792969 821.503906 C 672.792969 817.378906 671.566406 813.671875 669.617188 810.519531 C 666.6875 806.617188 662.507812 804.054688 656.625 803.273438 C 654.421875 802.882812 652.222656 802.6875 650.242188 802.6875 C 648.292969 802.882812 646.3125 802.882812 644.613281 803.078125 L 646.5625 800.152344 C 650.242188 795.050781 653.921875 790.5625 657.351562 786.4375 C 661.03125 782.507812 664.457031 779.191406 667.636719 776.261719 C 675.71875 769.40625 683.078125 766.0625 689.183594 766.0625 C 689.910156 766.0625 690.660156 765.671875 691.386719 765.28125 C 691.886719 764.890625 692.363281 764.304688 692.363281 763.523438 C 692.363281 762.9375 691.859375 762.351562 691.386719 761.964844 C 690.660156 761.378906 689.910156 761.183594 689.183594 761.183594 C 684.78125 761.183594 680.375 762.351562 675.71875 764.5 C 671.789062 766.449219 667.636719 769.40625 663.230469 773.113281 C 656.125 778.996094 648.792969 787.21875 641.433594 797.808594 C 638.507812 801.90625 635.804688 805.839844 633.351562 809.769531 C 630.898438 813.699219 628.695312 817.210938 626.742188 820.359375 L 638.199219 746.800781 C 638.453125 745.042969 637.699219 743.84375 636 743.0625 C 634.046875 742.476562 632.066406 742.089844 629.867188 742.285156 C 627.414062 742.285156 625.460938 742.671875 623.257812 743.453125 C 621.308594 744.234375 620.332031 745.210938 620.082031 746.410156 L 611.773438 802.519531 C 609.710938 806.8125 607.371094 811.078125 604.890625 815.371094 C 601.460938 820.863281 598.03125 825.964844 594.351562 830.257812 C 590.199219 835.359375 586.269531 839.261719 582.339844 842.019531 C 580.386719 843.582031 578.410156 843.777344 576.957031 842.996094 C 575.480469 842.019531 574.507812 840.429688 573.78125 838.089844 C 572.804688 835.941406 572.304688 833.183594 572.082031 830.453125 C 572.082031 827.523438 572.082031 824.765625 572.082031 822.425781 C 572.582031 819.273438 573.054688 816.347656 573.78125 813.421875 C 574.757812 810.660156 575.734375 807.929688 577.210938 805.585938 C 577.933594 804.417969 578.6875 803.023438 579.664062 801.65625 C 580.636719 800.289062 581.863281 799.121094 582.839844 798.339844 C 583.816406 797.558594 584.792969 797.167969 585.796875 797.363281 C 586.769531 797.558594 587.496094 798.535156 587.996094 800.289062 C 588.972656 802.632812 588.972656 805.195312 587.996094 807.929688 C 587.746094 808.515625 587.996094 809.097656 588.5 809.683594 C 589 810.269531 589.476562 810.660156 590.449219 810.660156 C 591.175781 810.855469 591.929688 810.855469 592.652344 810.464844 C 593.378906 810.269531 593.878906 809.683594 593.878906 809.097656 C 595.105469 805.585938 595.105469 802.242188 593.878906 798.925781 C 592.652344 795.386719 590.703125 792.847656 587.746094 791.09375 C 587.023438 790.703125 586.269531 790.3125 585.292969 789.921875 C 584.066406 789.726562 583.089844 789.335938 581.613281 789.335938 C 580.136719 789.140625 578.660156 789.335938 576.960938 789.53125 C 575.257812 789.921875 573.53125 790.507812 571.328125 791.484375 C 567.898438 793.238281 564.972656 796 562.269531 800.097656 C 561.851562 800.765625 561.460938 801.460938 561.070312 802.160156 C 560.988281 802.1875 560.902344 802.214844 560.820312 802.242188 C 557.640625 803.023438 554.214844 803.414062 550.03125 803.414062 C 549.308594 803.414062 548.332031 803.414062 547.578125 803.414062 C 546.601562 803.414062 545.851562 803.414062 545.125 803.414062 C 545.375 798.507812 545.125 793.628906 544.148438 788.722656 C 543.425781 784.011719 541.949219 779.71875 539.996094 775.789062 C 538.046875 771.46875 535.59375 768.152344 532.636719 765.585938 C 529.460938 762.660156 525.78125 761.097656 521.375 760.679688 C 517.695312 760.484375 514.519531 761.070312 511.339844 762.632812 C 508.164062 764.191406 505.960938 766.339844 504.234375 769.097656 C 502.03125 773 501.304688 777.128906 502.28125 781.644531 C 502.785156 783.984375 504.011719 786.546875 505.460938 788.890625 C 506.9375 791.453125 508.886719 793.601562 511.339844 795.746094 C 510.617188 795.355469 509.613281 795.164062 508.386719 794.773438 C 507.410156 794.578125 506.183594 794.578125 504.957031 794.578125 C 503.480469 794.773438 502.253906 794.96875 501.054688 795.355469 C 499.578125 795.550781 498.601562 796.136719 497.625 796.917969 C 497.347656 797.140625 497.070312 797.421875 496.816406 797.726562 C 496.121094 797.949219 495.675781 798.507812 495.425781 799.066406 C 495.425781 799.066406 495.3125 799.539062 495.0625 800.375 C 494.785156 800.875 494.503906 801.433594 494.199219 801.992188 C 493.222656 804.332031 492.496094 807.09375 491.746094 809.824219 C 490.519531 813.167969 489.042969 816.683594 487.339844 820.808594 C 485.863281 824.710938 483.914062 828.835938 481.960938 833.15625 C 479.507812 838.0625 477.304688 842.382812 474.851562 846.285156 C 472.652344 850.019531 470.449219 853.335938 467.996094 856.292969 C 466.042969 858.632812 464.566406 860.195312 463.339844 861.003906 C 462.113281 861.980469 461.390625 862.171875 460.636719 861.589844 C 459.910156 861.199219 459.410156 860.027344 459.160156 858.269531 C 458.65625 856.515625 458.433594 854.144531 458.183594 851.414062 C 457.933594 848.265625 457.933594 844.75 458.183594 841.015625 C 458.183594 837.113281 458.683594 832.792969 459.160156 828.082031 C 459.632812 823.761719 460.386719 819.078125 461.109375 814.367188 C 462.085938 809.65625 462.8125 804.972656 463.8125 800.261719 C 464.789062 795.355469 465.765625 790.675781 466.769531 786.160156 C 467.746094 781.449219 468.71875 777.15625 469.695312 773.03125 C 470.671875 768.125 471.648438 763.636719 472.652344 759.511719 C 473.375 755.382812 474.128906 751.871094 474.601562 748.722656 C 475.105469 746.769531 474.351562 745.378906 472.652344 744.792969 C 470.949219 744.011719 468.71875 743.621094 466.519531 743.816406 C 464.066406 744.011719 462.113281 744.402344 459.910156 745.183594 C 457.960938 745.964844 456.984375 746.9375 456.734375 748.136719 C 456.230469 751.0625 455.507812 754.605469 454.53125 758.730469 C 453.808594 762.660156 452.804688 766.953125 451.578125 771.664062 C 450.851562 775.984375 449.875 780.472656 448.875 785.183594 C 447.648438 789.699219 446.671875 794.578125 445.695312 799.289062 C 445.527344 800.429688 445.332031 801.546875 445.164062 802.6875 C 443.101562 806.925781 440.816406 811.132812 438.363281 815.371094 C 434.9375 820.863281 431.507812 825.964844 427.828125 830.257812 C 423.644531 835.359375 419.742188 839.261719 415.8125 842.019531 C 413.863281 843.582031 411.882812 843.777344 410.433594 842.996094 C 408.957031 842.019531 407.980469 840.429688 407.257812 838.089844 C 406.28125 835.941406 405.777344 833.183594 405.527344 830.453125 C 405.527344 827.523438 405.527344 824.765625 405.527344 822.425781 C 406.03125 819.273438 406.503906 816.347656 407.257812 813.421875 C 408.230469 810.660156 409.207031 807.929688 410.683594 805.585938 C 411.410156 804.417969 412.160156 803.023438 413.136719 801.65625 C 414.113281 800.292969 415.339844 799.121094 416.316406 798.339844 C 417.289062 797.558594 418.265625 797.167969 419.269531 797.363281 C 420.246094 797.558594 421 798.535156 421.472656 800.292969 C 422.449219 802.632812 422.449219 805.195312 421.472656 807.929688 C 421.222656 808.515625 421.472656 809.097656 421.972656 809.683594 C 422.449219 810.269531 422.949219 810.660156 423.925781 810.660156 C 424.679688 810.855469 425.402344 810.855469 426.128906 810.464844 C 426.851562 810.269531 427.355469 809.683594 427.355469 809.101562 C 428.582031 805.585938 428.582031 802.242188 427.355469 798.925781 C 426.128906 795.386719 424.175781 792.847656 421.222656 791.09375 C 420.496094 790.703125 419.742188 790.3125 418.769531 789.921875 C 417.542969 789.726562 416.566406 789.335938 415.089844 789.335938 C 413.613281 789.140625 412.160156 789.335938 410.433594 789.53125 C 408.707031 789.921875 407.003906 790.507812 404.804688 791.484375 C 401.375 793.238281 398.449219 796 395.742188 800.097656 C 393.542969 803.609375 391.589844 807.734375 390.585938 812.640625 C 389.359375 817.351562 388.636719 821.839844 388.636719 826.550781 C 388.636719 831.261719 389.359375 835.582031 390.585938 839.09375 C 392.0625 843.023438 394.015625 845.949219 396.71875 848.125 C 399.171875 850.074219 402.351562 851.050781 405.777344 851.050781 C 408.734375 851.050781 411.410156 850.464844 414.113281 849.101562 C 416.816406 847.929688 419.269531 846.339844 421.722656 844.390625 C 423.925781 842.632812 426.128906 840.652344 428.078125 838.507812 C 430.03125 836.363281 431.507812 834.578125 432.984375 833.015625 C 436.132812 829.003906 439.257812 824.652344 442.265625 819.941406 C 441.90625 822.589844 441.597656 825.15625 441.320312 827.75 C 439.84375 838.730469 439.617188 847.539062 440.34375 854.007812 C 441.070312 860.472656 443.046875 865.183594 445.972656 867.914062 C 447.925781 869.867188 450.628906 870.871094 454.058594 870.871094 C 460.191406 870.871094 466.546875 866.941406 473.152344 858.914062 C 477.808594 853.03125 482.714844 845.003906 487.589844 834.800781 C 489.152344 831.539062 490.6875 828.167969 492.109375 824.875 C 492.496094 826.132812 493.027344 827.359375 493.695312 828.527344 C 494.421875 829.699219 495.171875 830.871094 496.398438 832.039062 C 497.375 833.210938 498.851562 834.410156 500.554688 835.386719 C 502.03125 836.363281 504.234375 837.140625 506.433594 837.726562 C 508.886719 838.3125 511.59375 838.703125 515.019531 838.703125 C 516.972656 838.703125 519.175781 838.507812 521.402344 838.117188 C 528.011719 836.554688 533.417969 833.015625 537.320312 827.328125 C 539.773438 824.179688 541.472656 821.058594 542.476562 817.714844 C 543.453125 814.394531 544.207031 811.246094 544.679688 808.125 C 545.65625 808.320312 546.378906 808.320312 547.382812 808.320312 C 548.359375 808.320312 549.082031 808.320312 550.085938 808.320312 C 553.125 808.320312 555.941406 808.070312 558.617188 807.621094 C 558.03125 809.210938 557.558594 810.855469 557.195312 812.640625 C 555.96875 817.351562 555.246094 821.839844 555.246094 826.550781 C 555.246094 831.261719 555.996094 835.582031 557.195312 839.09375 C 558.671875 843.023438 560.625 845.949219 563.328125 848.125 C 565.78125 850.074219 568.957031 851.050781 572.386719 851.050781 C 575.34375 851.050781 578.019531 850.464844 580.722656 849.101562 C 583.425781 847.929688 585.851562 846.339844 588.304688 844.390625 C 590.507812 842.632812 592.707031 840.652344 594.6875 838.507812 C 596.640625 836.363281 598.117188 834.578125 599.59375 833.015625 C 602.9375 828.75 606.285156 824.125 609.433594 819.023438 L 607.203125 834.1875 C 606.953125 835.554688 607.707031 836.527344 609.40625 837.113281 C 611.132812 837.699219 613.085938 837.894531 615.285156 837.894531 C 617.238281 837.894531 619.441406 837.699219 621.417969 837.113281 C 623.371094 836.527344 624.597656 835.941406 625.097656 835.164062 C 625.097656 834.96875 625.601562 834.1875 626.578125 832.597656 C 627.300781 831.039062 628.277344 829.085938 629.753906 826.523438 C 631.230469 824.179688 632.933594 821.226562 634.910156 818.101562 C 636.613281 814.980469 638.839844 811.441406 641.265625 807.929688 L 641.515625 807.929688 C 643.246094 807.929688 644.945312 808.125 646.421875 808.320312 C 647.648438 808.515625 649.128906 808.90625 650.101562 809.683594 C 651.328125 810.855469 652.554688 812.25 653.03125 814.003906 C 653.753906 815.957031 654.257812 817.90625 654.757812 820.277344 C 655.007812 822.425781 655.007812 824.792969 655.007812 827.328125 C 655.007812 829.867188 655.007812 832.234375 655.007812 834.773438 C 655.007812 839.679688 655.261719 844.167969 655.511719 848.097656 C 655.761719 852 657.238281 854.953125 659.441406 857.101562 C 661.390625 858.464844 663.59375 859.050781 666.296875 859.050781 C 671.425781 859.050781 676.835938 855.734375 682.214844 849.074219 C 686.367188 843.972656 690.296875 837.308594 694.453125 829.085938 C 696.152344 825.546875 697.628906 822.035156 699.105469 818.492188 C 700.585938 815.175781 701.8125 812.027344 702.785156 809.488281 C 703.761719 806.757812 704.738281 804.582031 705.238281 802.828125 C 705.964844 801.265625 706.214844 800.292969 706.214844 800.292969 C 706.300781 799.734375 706.046875 799.148438 705.574219 798.5625 Z M 536.289062 817.15625 C 535.0625 820.109375 533.835938 822.648438 532.136719 824.988281 C 530.660156 827.359375 528.957031 829.308594 526.980469 830.480469 C 524.777344 831.84375 522.824219 832.429688 520.625 832.429688 C 518.671875 832.429688 516.46875 831.84375 514.742188 830.480469 C 512.789062 829.308594 511.3125 827.359375 510.335938 824.792969 C 508.859375 820.5 508.609375 815.59375 510.085938 809.714844 C 510.8125 806.394531 511.789062 803.832031 512.539062 802.074219 C 513.515625 800.515625 514.269531 799.34375 514.992188 798.5625 C 518.171875 800.710938 521.851562 802.660156 525.78125 804.054688 C 529.933594 805.644531 534.113281 806.8125 538.519531 807.59375 C 538.019531 810.882812 537.265625 814.230469 536.289062 817.15625 Z M 538.992188 802.464844 C 534.339844 801.683594 530.183594 800.515625 526.253906 798.757812 C 522.101562 797 518.894531 795.023438 516.21875 792.679688 C 513.765625 790.535156 512.066406 788.554688 510.839844 786.605469 C 509.613281 784.457031 508.636719 782.675781 508.136719 780.722656 C 507.882812 778.964844 507.882812 777.210938 508.136719 775.621094 C 508.386719 773.867188 508.859375 772.472656 509.835938 771.300781 C 510.8125 769.351562 512.289062 767.984375 514.238281 766.980469 C 515.96875 766.003906 517.917969 765.613281 519.871094 765.613281 L 520.847656 765.613281 C 522.574219 765.808594 524.273438 766.199219 525.753906 767.175781 C 526.980469 767.957031 528.457031 768.933594 529.433594 770.128906 C 530.660156 771.300781 531.632812 772.472656 532.359375 773.835938 C 533.335938 775.203125 533.835938 776.402344 534.308594 777.378906 C 536.011719 781.085938 537.238281 785.015625 538.242188 789.335938 C 538.992188 793.65625 539.242188 797.949219 538.992188 802.464844 Z M 393.234375 764.25 L 380.996094 785.40625 C 380.996094 785.601562 380.746094 785.601562 380.273438 785.601562 C 379.546875 785.601562 379.046875 785.601562 378.542969 785.601562 C 377.820312 785.40625 377.316406 785.210938 376.816406 784.820312 C 376.089844 784.625 375.839844 784.234375 375.839844 783.84375 L 380.496094 763.078125 C 380.996094 762.296875 381.722656 761.710938 383.449219 761.515625 C 384.929688 761.125 386.628906 761.125 388.105469 761.515625 C 389.835938 761.710938 391.285156 762.101562 392.257812 762.492188 C 393.484375 763.078125 393.738281 763.664062 393.234375 764.25 Z M 379.769531 798.144531 C 379.269531 797.753906 378.542969 797.558594 377.570312 797.558594 C 376.84375 797.558594 376.089844 797.753906 375.617188 798.339844 C 373.890625 800.097656 371.214844 801.265625 368.257812 802.242188 C 365.082031 803.023438 361.402344 803.414062 357.472656 803.414062 C 356.746094 803.414062 355.769531 803.414062 355.019531 803.414062 C 354.042969 803.414062 353.289062 803.414062 352.3125 803.414062 C 352.816406 798.507812 352.566406 793.628906 351.589844 788.722656 C 350.613281 784.011719 349.386719 779.71875 347.4375 775.789062 C 345.484375 771.46875 343.03125 768.152344 340.078125 765.585938 C 336.898438 762.660156 332.96875 761.097656 328.816406 760.679688 C 325.136719 760.484375 321.707031 761.070312 318.78125 762.632812 C 315.601562 764.191406 313.402344 766.339844 311.671875 769.097656 C 309.46875 773 308.71875 777.128906 309.722656 781.644531 C 310.222656 783.984375 311.199219 786.546875 312.648438 788.890625 C 314.375 791.453125 316.328125 793.601562 318.78125 795.746094 C 318.054688 795.355469 317.050781 795.164062 315.824219 794.773438 C 314.597656 794.578125 313.371094 794.578125 312.144531 794.578125 C 310.921875 794.773438 309.695312 794.96875 308.46875 795.355469 C 306.988281 795.550781 306.015625 796.136719 305.039062 796.917969 C 303.8125 797.894531 302.585938 799.648438 301.609375 802.019531 C 300.632812 804.359375 299.660156 807.121094 299.15625 809.851562 C 298.65625 812.417969 298.433594 815.539062 298.433594 818.855469 C 298.433594 822.199219 299.40625 825.519531 301.136719 828.472656 C 301.636719 829.644531 302.613281 830.8125 303.589844 831.984375 C 304.816406 833.15625 306.292969 834.355469 307.742188 835.328125 C 309.46875 836.304688 311.421875 837.085938 313.875 837.671875 C 316.328125 838.257812 319.03125 838.648438 322.210938 838.648438 C 324.410156 838.648438 326.363281 838.453125 328.59375 838.0625 L 328.84375 838.0625 C 335.449219 836.5 340.828125 832.960938 344.761719 827.273438 C 346.960938 824.125 348.691406 821.003906 349.890625 817.65625 C 350.863281 814.339844 351.617188 811.191406 352.089844 808.066406 C 352.816406 808.261719 353.820312 808.261719 354.796875 808.261719 C 355.519531 808.261719 356.496094 808.261719 357.5 808.261719 C 362.40625 808.261719 366.808594 807.679688 370.738281 806.507812 C 374.671875 805.335938 377.847656 803.746094 380.300781 801.40625 C 380.800781 801.015625 381.027344 800.429688 381.027344 799.648438 C 380.996094 799.148438 380.496094 798.5625 379.769531 798.144531 Z M 343.503906 817.15625 C 342.53125 820.109375 341.054688 822.648438 339.574219 824.988281 C 338.097656 827.359375 336.398438 829.308594 334.445312 830.480469 C 332.246094 831.84375 330.292969 832.429688 328.089844 832.429688 C 325.890625 832.429688 323.9375 831.84375 321.957031 830.480469 C 320.230469 829.308594 318.78125 827.359375 317.804688 824.792969 C 316.105469 820.5 316.105469 815.59375 317.554688 809.714844 C 318.308594 806.394531 319.03125 803.832031 320.007812 802.074219 C 320.984375 800.515625 321.707031 799.34375 322.460938 798.5625 C 325.636719 800.710938 329.066406 802.660156 333.246094 804.054688 C 337.179688 805.644531 341.582031 806.8125 345.988281 807.59375 C 345.484375 810.882812 344.730469 814.230469 343.503906 817.15625 Z M 333.472656 798.757812 C 329.539062 797 326.113281 795.023438 323.4375 792.679688 C 321.234375 790.535156 319.535156 788.554688 318.054688 786.605469 C 316.828125 784.457031 316.105469 782.675781 315.601562 780.722656 C 315.351562 778.964844 315.101562 777.210938 315.601562 775.621094 C 315.855469 773.867188 316.328125 772.472656 317.082031 771.300781 C 318.308594 769.351562 319.785156 767.984375 321.484375 766.980469 C 323.4375 766.003906 325.414062 765.613281 327.367188 765.613281 L 328.089844 765.613281 C 330.042969 765.808594 331.769531 766.199219 332.996094 767.175781 C 334.472656 767.957031 335.699219 768.933594 336.925781 770.128906 C 338.152344 771.300781 339.128906 772.472656 339.855469 773.835938 C 340.578125 775.203125 341.332031 776.402344 341.804688 777.378906 C 343.535156 781.085938 344.761719 785.015625 345.484375 789.335938 C 346.210938 793.65625 346.460938 797.976562 346.460938 802.464844 C 341.804688 801.683594 337.652344 800.515625 333.472656 798.757812 Z M 333.472656 798.757812 " fill-opacity="1" fill-rule="nonzero"/><path fill="#3758a7" d="M 723.441406 796.386719 C 754.550781 756.804688 784.683594 740.945312 813.589844 748.972656 C 824.851562 753.292969 825.605469 759.566406 815.792969 767.398438 C 785.183594 782.871094 775.402344 765.417969 723.441406 796.386719 Z M 281.039062 796.386719 C 249.929688 756.804688 220.046875 740.945312 191.140625 748.972656 C 179.628906 753.292969 178.902344 759.566406 188.9375 767.398438 C 219.324219 782.871094 229.359375 765.417969 281.039062 796.386719 Z M 269.777344 831.066406 C 230.585938 833.015625 209.261719 842.242188 206.082031 858.300781 C 205.582031 865.15625 210.011719 867.300781 218.820312 865.15625 C 239.894531 855.761719 230.332031 845.589844 269.777344 831.066406 Z M 273.457031 808.542969 C 220.296875 788.945312 184.285156 788.945312 165.414062 808.152344 C 159.058594 816.765625 162.707031 822.257812 176.199219 824.625 C 212.464844 824.207031 208.785156 805.226562 273.457031 808.542969 Z M 734.953125 831.066406 C 773.894531 833.015625 795.21875 842.242188 798.648438 858.300781 C 798.898438 865.15625 794.746094 867.300781 785.660156 865.15625 C 764.613281 855.761719 774.398438 845.589844 734.953125 831.066406 Z M 731.304688 808.542969 C 784.460938 788.945312 820.222656 788.945312 839.09375 808.152344 C 845.703125 816.765625 842.050781 822.257812 828.308594 824.625 C 792.292969 824.207031 795.972656 805.226562 731.304688 808.542969 Z M 731.304688 808.542969 " fill-opacity="1" fill-rule="evenodd"/><path fill="#731c47" d="M 300.160156 898.886719 C 298.207031 898.886719 296.730469 897.519531 296.730469 897.519531 C 292.800781 896.933594 291.601562 896.152344 287.921875 896.152344 C 284.496094 896.152344 282.792969 897.519531 281.066406 897.519531 C 277.636719 900.277344 274.207031 904.375 275.9375 908.695312 C 275.9375 911.429688 279.367188 913.992188 282.070312 916.140625 C 284.773438 918.285156 286.222656 918.285156 287.949219 919.652344 C 289.679688 921.019531 291.378906 922.410156 295.058594 923.777344 C 298.238281 925.144531 300.214844 926.703125 301.917969 929.464844 C 305.34375 940.445312 301.917969 951.402344 291.628906 955.722656 C 289.679688 955.722656 289.679688 957.089844 287.949219 957.089844 C 282.820312 955.722656 281.09375 947.304688 284.523438 944.738281 C 286.222656 943.179688 287.949219 943.179688 289.679688 943.179688 C 291.628906 940.417969 289.679688 937.6875 286.25 937.6875 C 281.34375 939.25 277.664062 939.054688 272.535156 940.417969 C 272.535156 941.785156 272.535156 943.179688 274.238281 944.738281 C 275.9375 944.738281 275.9375 943.179688 277.664062 943.179688 C 275.9375 948.667969 277.664062 952.960938 279.394531 955.722656 C 281.09375 957.089844 286.25 961.214844 289.679688 961.214844 L 296.730469 961.214844 C 303.589844 959.847656 307.742188 957.476562 310.445312 952.992188 C 312.648438 949.058594 313.625 946.132812 313.625 940.640625 C 313.625 937.714844 312.898438 934.175781 311.171875 931.441406 C 309.46875 928.710938 308.46875 927.707031 307.742188 926.535156 C 303.085938 919.875 293.050781 918.3125 289.625 912.824219 C 287.894531 909.894531 287.894531 903.039062 289.625 900.277344 C 293.050781 900.277344 296.730469 901.644531 298.210938 903.011719 C 298.210938 905.742188 296.730469 908.695312 298.210938 909.867188 C 301.886719 911.429688 303.589844 907.109375 305.316406 904.375 C 305.316406 903.011719 307.046875 900.25 305.316406 898.886719 C 305.316406 897.519531 303.617188 897.519531 301.886719 897.519531 C 300.160156 897.519531 300.160156 898.886719 300.160156 898.886719 Z M 357.472656 955.136719 C 360.648438 950.230469 363.101562 945.15625 364.832031 938.691406 C 366.53125 933.199219 366.308594 928.488281 366.308594 924.585938 C 366.308594 921.464844 366.308594 920.070312 365.804688 917.535156 C 365.082031 910.675781 361.152344 904.597656 356.246094 901.867188 C 352.816406 897.9375 349.636719 896.570312 343.003906 896.570312 C 331.242188 895.207031 328.0625 903.234375 322.90625 908.53125 C 321.207031 909.894531 321.429688 912.628906 320.453125 915.386719 C 320.453125 916.753906 319.980469 918.703125 319.726562 920.488281 C 319.003906 924.027344 319.726562 925.785156 319.726562 928.515625 C 319.726562 933.8125 319.726562 939.109375 321.207031 944.40625 C 322.90625 948.335938 324.886719 951.457031 326.363281 953.796875 C 330.292969 959.875 342.027344 964.585938 352.816406 959.09375 C 354.292969 958.257812 356.246094 956.699219 357.472656 955.136719 Z M 350.140625 954.132812 C 348.914062 956.667969 340.828125 957.839844 338.152344 955.695312 C 337.179688 954.914062 337.902344 953.742188 336.425781 953.742188 C 334.699219 952.378906 334.699219 949.617188 332.996094 946.886719 C 331.269531 939.054688 329.820312 928.460938 331.269531 917.699219 C 331.269531 915.164062 331.269531 912.40625 332.996094 909.867188 C 334.726562 905.742188 336.425781 903.207031 339.601562 900.472656 C 343.03125 900.472656 343.28125 900.863281 346.460938 900.863281 C 349.890625 902.035156 351.367188 905.769531 352.816406 908.5 C 354.542969 911.234375 354.542969 913.796875 356.246094 916.53125 C 356.246094 919.066406 356.746094 921.632812 356.746094 924.363281 C 356.746094 926.898438 356.246094 928.460938 356.246094 931.023438 C 356.246094 935.121094 356.246094 939.054688 354.515625 943.179688 C 353.792969 946.300781 351.589844 951.597656 350.140625 954.132812 Z M 404.746094 931.21875 C 403.046875 928.683594 402.292969 928.070312 401.066406 924.949219 C 398.613281 919.066406 396.414062 912.40625 392.984375 907.109375 L 392.984375 905.742188 C 391.253906 903.011719 389.554688 900.445312 388.078125 897.714844 C 382.921875 896.347656 374.613281 894.984375 369.457031 896.347656 C 369.457031 899.082031 369.457031 899.082031 371.15625 900.472656 C 372.886719 900.472656 373.609375 900.863281 375.089844 900.863281 C 376.566406 900.863281 376.316406 900.472656 378.015625 900.472656 L 378.015625 909.867188 C 378.015625 913.796875 378.015625 919.066406 378.015625 923.191406 L 378.015625 925.925781 C 378.015625 931.21875 378.015625 937.882812 378.015625 943.375 L 378.015625 956.699219 C 374.585938 955.332031 374.585938 956.699219 372.886719 958.0625 C 374.613281 959.429688 374.613281 960.796875 376.316406 960.796875 C 379.492188 960.796875 391.253906 962.160156 391.253906 958.0625 C 391.253906 956.699219 389.527344 956.699219 388.078125 956.699219 C 388.078125 952.796875 388.078125 948.667969 388.078125 944.738281 L 388.078125 937.882812 C 388.078125 933.953125 389.554688 928.851562 389.554688 925.925781 L 389.554688 916.53125 C 391.285156 917.894531 391.507812 919.457031 392.257812 920.851562 C 393.960938 924.195312 394.710938 926.34375 395.6875 928.878906 C 397.164062 932.808594 398.390625 936.515625 399.839844 940.640625 C 400.566406 942.984375 401.570312 944.765625 401.570312 947.304688 C 403.046875 947.304688 404.746094 948.667969 406.476562 948.667969 C 408.203125 948.667969 407.953125 943.179688 408.675781 940.445312 C 409.902344 936.347656 409.902344 936.515625 411.632812 928.683594 C 412.132812 927.316406 413.109375 924.558594 413.109375 924.558594 C 414.839844 919.066406 416.289062 913.378906 418.015625 909.867188 C 418.515625 908.503906 418.265625 907.109375 418.265625 907.109375 C 419.996094 908.472656 419.242188 908.695312 419.242188 909.867188 C 420.21875 911.625 419.96875 912.40625 419.96875 912.40625 L 419.96875 917.894531 C 419.96875 920.433594 418.992188 924.363281 418.992188 926.3125 C 418.992188 937.492188 418.265625 947.277344 419.96875 956.699219 C 418.238281 958.0625 414.808594 958.0625 414.808594 959.457031 C 414.808594 960.824219 416.539062 960.042969 416.539062 961.410156 C 420.21875 961.410156 423.144531 960.628906 422.167969 961.019531 L 425.125 961.605469 C 426.851562 961.605469 427.074219 961.019531 428.804688 961.019531 C 430.53125 961.019531 430.53125 961.410156 432.230469 961.410156 C 435.660156 960.042969 431.730469 956.699219 426.601562 956.699219 C 426.601562 952.796875 427.324219 948.863281 426.601562 943.375 C 426.097656 940.25 426.601562 937.882812 426.601562 933.980469 L 426.601562 923.191406 C 426.601562 920.433594 426.601562 919.652344 426.601562 916.53125 L 426.601562 911.039062 C 426.601562 907.109375 424.871094 904.375 426.601562 900.445312 C 430.03125 901.617188 431.730469 900.445312 433.457031 899.082031 C 431.757812 897.714844 431.757812 896.347656 430.03125 896.347656 L 419.996094 896.347656 C 416.566406 896.347656 413.136719 899.082031 413.136719 901.644531 C 413.136719 904.375 411.910156 906.746094 411.1875 909.476562 C 409.707031 914.1875 408.984375 915.945312 408.230469 919.066406 C 407.199219 923.191406 406.476562 927.289062 404.746094 931.21875 Z M 472.121094 906.914062 C 478.726562 906.914062 475.550781 901.617188 475.550781 898.886719 C 475.550781 897.519531 473.820312 896.347656 473.820312 896.347656 L 457.152344 896.347656 C 450.546875 897.519531 443.910156 897.519531 437.304688 898.886719 L 437.304688 901.644531 L 443.910156 901.644531 C 443.910156 905.546875 443.910156 909.476562 443.910156 913.601562 L 443.910156 918.703125 C 443.910156 924.195312 443.910156 928.097656 443.910156 932.027344 L 443.910156 934.761719 C 443.910156 942.789062 445.640625 949.253906 443.910156 957.28125 C 442.183594 957.28125 438.78125 957.28125 437.304688 957.28125 L 437.304688 960.042969 C 447.089844 961.410156 455.425781 961.410156 463.757812 961.410156 L 472.09375 961.410156 C 473.820312 960.042969 475.523438 958.675781 475.523438 957.28125 C 475.523438 954.550781 475.523438 950.621094 472.09375 950.621094 C 468.664062 951.988281 472.09375 955.917969 468.664062 957.28125 C 463.757812 957.28125 460.328125 957.28125 455.453125 955.917969 C 455.453125 953.378906 454.949219 948.28125 454.949219 944.152344 C 454.949219 940.222656 453.722656 934.730469 455.453125 930.632812 C 457.179688 930.632812 462.058594 930.632812 463.785156 930.632812 L 463.785156 932 C 463.785156 933.367188 466.964844 934.730469 466.964844 934.730469 C 470.394531 934.730469 466.964844 926.703125 468.664062 924.140625 C 466.964844 922.773438 466.964844 922.773438 465.488281 922.773438 C 463.757812 922.773438 463.757812 925.503906 463.757812 926.675781 C 460.328125 926.675781 455.425781 926.675781 453.722656 925.503906 C 455.453125 922.773438 453.722656 920.015625 453.722656 916.113281 C 453.722656 913.546875 453.972656 911.597656 453.972656 907.886719 C 453.972656 904.738281 453.722656 902.789062 455.453125 901.617188 C 458.878906 900.25 463.785156 900.25 466.964844 900.25 C 468.664062 900.835938 468.664062 900.835938 470.394531 901.617188 C 472.121094 902.816406 470.421875 905.546875 472.121094 906.914062 Z M 496.121094 900.835938 C 497.851562 899.46875 501.027344 899.46875 501.027344 898.078125 C 501.027344 896.90625 499.300781 896.90625 499.300781 896.90625 C 492.691406 895.539062 487.785156 896.90625 481.179688 896.90625 C 479.703125 896.90625 479.703125 898.078125 479.703125 898.078125 C 479.703125 900.835938 481.179688 902.007812 484.609375 900.835938 C 486.335938 905.9375 487.785156 911.207031 487.785156 917.894531 C 490.742188 930.246094 491.96875 943.957031 494.394531 956.113281 C 494.894531 958.871094 496.09375 961.410156 499.300781 961.410156 C 504.929688 951.429688 506.910156 936.125 513.988281 924.558594 C 518.394531 933.5625 522.074219 944.542969 523.800781 954.746094 C 523.800781 956.113281 525.53125 961.410156 528.957031 961.410156 C 530.4375 960.042969 530.660156 954.941406 531.160156 952.40625 C 532.636719 944.378906 533.863281 936.347656 535.816406 927.121094 C 537.292969 920.65625 538.015625 915.359375 541.195312 909.28125 C 542.171875 907.527344 542.171875 903.402344 543.648438 902.035156 C 545.347656 900.863281 548.777344 902.035156 550.503906 900.863281 C 550.503906 899.5 550.253906 898.496094 550.253906 897.324219 C 546.101562 895.957031 538.992188 896.152344 534.085938 896.933594 C 532.609375 897.128906 533.835938 899.46875 533.835938 900.863281 C 533.835938 902.035156 537.515625 901.449219 537.515625 901.449219 C 537.515625 902.816406 537.015625 906.355469 535.789062 908.695312 C 534.308594 911.039062 534.308594 916.335938 532.359375 919.066406 C 530.660156 922.996094 530.660156 925.730469 527.453125 928.460938 C 525.753906 920.628906 524.023438 912.601562 522.324219 904.738281 C 525.753906 904.738281 527.453125 902.007812 525.753906 900.835938 C 522.324219 899.46875 520.59375 900.835938 517.417969 900.835938 C 513.988281 900.835938 507.632812 899.46875 507.632812 900.835938 C 507.632812 902.007812 509.335938 903.371094 509.335938 903.371094 L 511.0625 903.371094 C 512.539062 903.371094 513.988281 904.738281 513.988281 904.738281 C 512.511719 913.9375 509.335938 921.796875 504.429688 929.632812 C 504.429688 930.996094 502.949219 934.121094 501.976562 933.339844 C 500.75 932.363281 501 930.996094 501 930.996094 C 499.269531 922.96875 497.820312 916.503906 497.820312 910.035156 C 497.851562 907.109375 494.894531 901.226562 496.121094 900.835938 Z M 596.304688 901.617188 C 599.734375 901.617188 599.734375 897.6875 596.304688 896.320312 C 594.574219 896.320312 593.601562 896.515625 591.398438 896.320312 C 587.71875 895.929688 584.792969 896.320312 581.363281 897.6875 L 581.363281 900.25 C 583.0625 901.617188 586.492188 900.25 587.96875 901.617188 C 589.699219 905.519531 589.699219 912.402344 589.699219 916.113281 C 583.089844 917.476562 576.457031 917.476562 569.851562 916.113281 C 568.152344 913.546875 569.851562 909.644531 569.851562 906.914062 C 569.851562 904.347656 568.152344 902.984375 569.851562 901.617188 C 571.578125 901.617188 574.757812 901.617188 574.757812 900.25 C 574.757812 898.886719 573.28125 897.6875 571.578125 897.6875 C 568.152344 896.320312 563.246094 897.6875 559.816406 897.6875 L 553.210938 897.6875 C 551.730469 898.855469 553.210938 900.25 553.210938 900.25 C 554.910156 901.617188 556.636719 901.617188 556.636719 901.617188 C 558.339844 904.347656 556.636719 908.277344 558.339844 911.011719 L 558.339844 912.375 C 558.339844 913.546875 558.339844 914.71875 558.339844 916.113281 L 558.339844 917.476562 C 558.339844 918.84375 558.339844 918.84375 558.339844 920.210938 L 558.339844 950.59375 C 558.339844 953.351562 558.339844 954.523438 558.339844 955.890625 L 554.910156 955.890625 C 553.210938 957.253906 554.910156 960.015625 554.910156 960.015625 C 561.515625 961.378906 564.695312 960.015625 571.578125 960.015625 C 574.757812 958.648438 571.578125 955.890625 569.851562 955.890625 C 568.152344 953.351562 569.851562 951.988281 568.152344 949.421875 C 568.152344 948.054688 568.152344 946.691406 568.152344 945.296875 L 568.152344 930.800781 C 568.152344 926.871094 568.152344 924.140625 571.578125 921.40625 C 576.484375 921.40625 583.089844 920.238281 587.996094 921.40625 C 587.996094 921.40625 589.726562 921.40625 589.726562 922.773438 C 589.726562 933.535156 591.425781 945.296875 589.726562 955.890625 C 589.726562 957.253906 586.546875 957.253906 586.546875 958.648438 C 584.847656 960.015625 584.09375 960.015625 585.824219 961.378906 C 587.300781 961.378906 588.023438 961.378906 589.753906 961.378906 C 593.183594 961.378906 593.90625 961.378906 595.636719 961.378906 C 595.636719 961.378906 596.609375 961.574219 598.089844 960.992188 C 599.316406 960.210938 599.816406 961.378906 599.816406 961.378906 L 599.816406 958.648438 C 599.816406 957.28125 598.089844 957.28125 596.386719 955.890625 C 596.386719 949.421875 594.660156 941.394531 594.660156 934.730469 C 594.660156 930.800781 594.660156 926.898438 594.660156 924.140625 L 594.660156 912.375 C 594.605469 908.277344 594.605469 904.375 596.304688 901.617188 Z M 638.199219 906.914062 C 644.808594 906.914062 641.378906 901.617188 641.378906 898.886719 C 641.378906 897.519531 639.675781 896.347656 639.675781 896.347656 L 623.257812 896.347656 C 616.652344 897.519531 610.046875 897.519531 603.160156 898.886719 L 603.160156 901.644531 L 610.019531 901.644531 C 610.019531 905.546875 610.019531 909.476562 610.019531 913.601562 L 610.019531 918.703125 C 610.019531 924.195312 610.019531 928.097656 610.019531 932.027344 L 610.019531 934.761719 C 610.019531 942.789062 611.746094 949.253906 610.019531 957.28125 C 608.289062 957.28125 604.863281 957.28125 603.160156 957.28125 L 603.160156 960.042969 C 613.195312 961.410156 621.53125 961.410156 629.867188 961.410156 L 638.199219 961.410156 C 639.679688 960.042969 641.378906 958.675781 641.378906 957.28125 C 641.378906 954.550781 641.378906 950.621094 638.199219 950.621094 C 634.773438 951.988281 638.199219 955.917969 634.773438 957.28125 C 629.867188 957.28125 626.4375 957.28125 621.53125 955.917969 C 621.53125 953.378906 621.03125 948.28125 621.03125 944.152344 C 621.03125 940.222656 619.804688 934.730469 621.53125 930.632812 C 623.230469 930.632812 628.136719 930.632812 629.867188 930.632812 L 629.867188 932 C 629.867188 933.367188 633.042969 934.730469 633.042969 934.730469 C 636.472656 934.730469 633.042969 926.703125 634.773438 924.140625 C 633.042969 922.773438 633.042969 922.773438 631.59375 922.773438 C 629.894531 922.773438 629.894531 925.503906 629.894531 926.675781 C 626.464844 926.675781 621.558594 926.675781 619.859375 925.503906 C 621.558594 922.773438 619.859375 920.015625 619.859375 916.113281 C 619.859375 913.546875 620.109375 911.597656 620.109375 907.886719 C 620.109375 904.738281 619.859375 902.789062 621.585938 901.617188 C 625.015625 900.25 629.921875 900.25 633.097656 900.25 C 634.828125 900.835938 634.828125 900.835938 636.527344 901.617188 C 638.199219 902.816406 636.5 905.546875 638.199219 906.914062 Z M 679.59375 925.144531 C 679.59375 923.777344 677.894531 923.777344 677.894531 922.410156 L 679.59375 920.851562 C 681.324219 919.679688 683.75 917.144531 684.75 915.359375 C 686.703125 911.625 685.726562 906.941406 684.75 904.179688 C 682.296875 896.152344 667.359375 895.761719 656.820312 897.324219 C 655.34375 897.324219 654.617188 897.910156 652.890625 897.910156 C 647.761719 897.910156 645.308594 898.105469 645.308594 902.230469 C 645.308594 903.597656 648.261719 904.179688 651.664062 904.179688 C 651.664062 911.234375 652.890625 915.554688 652.390625 921.4375 C 652.136719 923.386719 651.664062 923.777344 651.664062 925.144531 C 653.617188 927.875 651.664062 930.632812 651.664062 933.367188 L 651.664062 957.28125 C 649.964844 957.28125 648.234375 957.28125 646.535156 958.453125 C 648.261719 961.378906 649.964844 961.378906 653.644531 961.378906 C 656.820312 960.015625 664.179688 960.992188 667.609375 960.992188 C 669.308594 960.992188 669.085938 960.015625 669.085938 958.453125 C 669.085938 957.28125 665.65625 957.28125 665.65625 955.890625 C 663.929688 952.960938 663.929688 950.203125 663.929688 947.277344 C 663.929688 941.785156 662.199219 933.367188 663.929688 926.507812 C 663.929688 925.144531 665.65625 925.144531 667.359375 925.144531 C 669.058594 926.507812 671.039062 926.507812 671.039062 927.875 C 672.765625 929.242188 672.988281 930.019531 674.464844 931.609375 C 678.394531 936.320312 676.667969 942.175781 677.894531 947.472656 C 679.59375 955.890625 674.714844 958.0625 678.144531 960.796875 C 683.050781 961.378906 690.382812 962.355469 690.382812 958.0625 C 690.382812 956.699219 688.652344 956.699219 686.953125 956.699219 C 685.003906 946.886719 686.703125 932.195312 679.59375 925.144531 Z M 662.453125 901.421875 C 663.929688 901.421875 669.058594 901.421875 671.035156 901.421875 C 672.765625 902.789062 674.464844 903.566406 674.464844 905.519531 C 674.464844 908.277344 674.96875 908.082031 674.464844 911.207031 C 673.964844 913.15625 672.765625 915.332031 672.765625 916.695312 C 671.035156 918.0625 663.203125 920.597656 662.953125 918.648438 C 662.703125 912.015625 662.453125 907.109375 662.453125 901.421875 Z M 728.851562 906.914062 C 735.457031 906.914062 732.027344 901.617188 732.027344 898.886719 C 732.027344 897.519531 730.300781 896.347656 730.300781 896.347656 L 713.882812 896.347656 C 707.023438 897.519531 700.417969 897.519531 693.78125 898.886719 L 693.78125 901.644531 L 700.390625 901.644531 C 700.390625 905.546875 700.390625 909.476562 700.390625 913.601562 L 700.390625 918.703125 C 700.390625 924.195312 700.390625 928.097656 700.390625 932.027344 L 700.390625 934.761719 C 700.390625 942.789062 702.117188 949.253906 700.390625 957.28125 C 698.910156 957.28125 695.484375 957.28125 693.78125 957.28125 L 693.78125 960.042969 C 703.816406 961.410156 712.152344 961.410156 720.238281 961.410156 L 728.820312 961.410156 C 730.300781 960.042969 732 958.675781 732 957.28125 C 732 954.550781 732 950.621094 728.820312 950.621094 C 725.394531 951.988281 728.820312 955.917969 725.394531 957.28125 C 720.265625 957.28125 717.058594 957.28125 712.179688 955.917969 C 712.179688 953.378906 711.679688 948.28125 711.679688 944.152344 C 711.679688 940.222656 710.453125 934.730469 712.179688 930.632812 C 713.910156 930.632812 718.785156 930.632812 720.265625 930.632812 L 720.265625 932 C 720.265625 933.367188 723.691406 934.730469 723.691406 934.730469 C 727.121094 934.730469 723.691406 926.703125 725.394531 924.140625 C 723.691406 922.773438 723.691406 922.773438 721.964844 922.773438 C 720.238281 922.773438 720.238281 925.503906 720.238281 926.675781 C 717.058594 926.675781 712.152344 926.675781 710.453125 925.503906 C 712.179688 922.773438 710.453125 920.015625 710.453125 916.113281 C 710.453125 913.546875 710.703125 911.597656 710.703125 907.886719 C 710.703125 904.738281 710.453125 902.789062 712.179688 901.617188 C 715.609375 900.25 720.265625 900.25 723.691406 900.25 C 725.394531 900.835938 725.394531 900.835938 727.121094 901.617188 C 728.851562 902.816406 727.121094 905.546875 728.851562 906.914062 Z M 728.851562 906.914062 " fill-opacity="1" fill-rule="nonzero"/><path fill="#3758a7" d="M 871.152344 933.367188 C 873.605469 933.367188 875.554688 931.804688 875.554688 929.855469 C 875.554688 927.679688 873.605469 926.117188 871.152344 926.117188 L 758.953125 926.117188 C 756.5 926.117188 754.550781 927.679688 754.550781 929.855469 C 754.550781 931.804688 756.5 933.367188 758.953125 933.367188 Z M 136.757812 933.367188 C 134.304688 933.367188 132.101562 931.804688 132.101562 929.855469 C 132.101562 927.679688 134.304688 926.117188 136.757812 926.117188 L 248.703125 926.117188 C 251.15625 926.117188 253.359375 927.679688 253.359375 929.855469 C 253.359375 931.804688 251.15625 933.367188 248.703125 933.367188 Z M 174.5 953.9375 C 172.046875 953.9375 170.09375 952.378906 170.09375 950.398438 C 170.09375 948.25 172.046875 946.691406 174.5 946.691406 L 248.730469 946.691406 C 251.183594 946.691406 253.386719 948.25 253.386719 950.398438 C 253.386719 952.347656 251.183594 953.9375 248.730469 953.9375 Z M 174.5 912.792969 C 172.046875 912.792969 170.09375 911.234375 170.09375 909.28125 C 170.09375 907.109375 172.046875 905.546875 174.5 905.546875 L 248.730469 905.546875 C 251.183594 905.546875 253.386719 907.109375 253.386719 909.28125 C 253.386719 911.234375 251.183594 912.792969 248.730469 912.792969 Z M 833.1875 953.9375 C 835.640625 953.9375 837.839844 952.378906 837.839844 950.398438 C 837.839844 948.25 835.640625 946.691406 833.1875 946.691406 L 758.953125 946.691406 C 756.5 946.691406 754.550781 948.25 754.550781 950.398438 C 754.550781 952.347656 756.5 953.9375 758.953125 953.9375 Z M 833.1875 912.792969 C 835.640625 912.792969 837.839844 911.234375 837.839844 909.28125 C 837.839844 907.109375 835.640625 905.546875 833.1875 905.546875 L 758.953125 905.546875 C 756.5 905.546875 754.550781 907.109375 754.550781 909.28125 C 754.550781 911.234375 756.5 912.792969 758.953125 912.792969 Z M 833.1875 912.792969 " fill-opacity="1" fill-rule="nonzero"/><path fill="#3758a7" d="M 327.339844 477.359375 C 289.875 424.84375 252.160156 402.878906 214.164062 411.910156 C 199.226562 417.011719 197.746094 425.039062 210.011719 435.628906 C 248.480469 456.984375 262.417969 434.820312 327.339844 477.359375 Z M 327.339844 477.359375 " fill-opacity="1" fill-rule="evenodd"/><path fill="#3758a7" d="M 329.792969 428.746094 C 323.183594 391.503906 307.742188 371.90625 283.238281 370.152344 C 272.953125 370.347656 270 374.667969 273.929688 383.085938 C 290.125 402.488281 304.3125 392.3125 329.792969 428.746094 Z M 329.792969 428.746094 " fill-opacity="1" fill-rule="evenodd"/><path fill="#3758a7" d="M 562.769531 398 C 561.796875 360.367188 573.308594 339.210938 597.058594 334.304688 C 607.09375 333.132812 611.023438 337.0625 608.820312 345.871094 C 596.804688 367.03125 580.386719 358.808594 562.769531 398 Z M 562.769531 398 " fill-opacity="1" fill-rule="evenodd"/><path fill="#3758a7" d="M 571.828125 402.488281 C 586.769531 379.9375 602.214844 370.347656 618.382812 373.691406 C 624.738281 375.644531 625.488281 378.988281 620.582031 383.671875 C 604.640625 393.09375 598.535156 383.867188 571.828125 402.488281 Z M 571.828125 402.488281 " fill-opacity="1" fill-rule="evenodd"/><path fill="#3758a7" d="M 348.914062 401.121094 C 349.636719 377.007812 342.308594 363.292969 327.117188 360.171875 C 320.507812 359.585938 318.054688 361.929688 319.535156 367.617188 C 327.117188 381.136719 337.652344 375.839844 348.914062 401.121094 Z M 348.914062 401.121094 " fill-opacity="1" fill-rule="evenodd"/></svg>